<mxfile host="app.diagrams.net" agent="Mozilla/5.0 (Macintosh; Intel Mac OS X 10_15_7) AppleWebKit/537.36 (KHTML, like Gecko) Chrome/130.0.0.0 Safari/537.36" version="24.8.2">
  <diagram name="第 1 页" id="qo__FnGVe26ZZZeS4IPS">
    <mxGraphModel dx="1781" dy="525" grid="1" gridSize="10" guides="1" tooltips="1" connect="1" arrows="1" fold="1" page="1" pageScale="1" pageWidth="827" pageHeight="1169" math="0" shadow="0">
      <root>
        <mxCell id="0" />
        <mxCell id="1" parent="0" />
        <mxCell id="n4JBOWXjH9mU0pEgpQ5--1" value="启动售货机" style="rounded=1;whiteSpace=wrap;html=1;" vertex="1" parent="1">
          <mxGeometry x="340" y="50" width="120" height="60" as="geometry" />
        </mxCell>
        <mxCell id="n4JBOWXjH9mU0pEgpQ5--4" value="显示主菜单：&lt;div&gt;&lt;p style=&quot;margin: 0px; font-variant-numeric: normal; font-variant-east-asian: normal; font-variant-alternates: normal; font-size-adjust: none; font-kerning: auto; font-optical-sizing: auto; font-feature-settings: normal; font-variation-settings: normal; font-variant-position: normal; font-stretch: normal; font-size: 13px; line-height: normal; font-family: &amp;quot;.AppleSystemUIFontMonospaced&amp;quot;; text-align: start;&quot; class=&quot;p1&quot;&gt;&lt;span class=&quot;Apple-converted-space&quot;&gt;|&amp;nbsp;&lt;/span&gt;&lt;span style=&quot;color: rgb(20, 0, 196);&quot; class=&quot;s1&quot;&gt;1&lt;/span&gt;: 投入&lt;span style=&quot;color: rgb(20, 0, 196);&quot; class=&quot;s1&quot;&gt;5&lt;/span&gt;角&lt;span class=&quot;Apple-converted-space&quot;&gt;&amp;nbsp; &amp;nbsp; &amp;nbsp; &amp;nbsp; &amp;nbsp; &amp;nbsp; &amp;nbsp; &amp;nbsp; &amp;nbsp; &lt;/span&gt;|&lt;/p&gt;&lt;p style=&quot;margin: 0px; font-variant-numeric: normal; font-variant-east-asian: normal; font-variant-alternates: normal; font-size-adjust: none; font-kerning: auto; font-optical-sizing: auto; font-feature-settings: normal; font-variation-settings: normal; font-variant-position: normal; font-stretch: normal; font-size: 13px; line-height: normal; font-family: &amp;quot;.AppleSystemUIFontMonospaced&amp;quot;; text-align: start;&quot; class=&quot;p1&quot;&gt;| &lt;span style=&quot;color: rgb(20, 0, 196);&quot; class=&quot;s1&quot;&gt;2&lt;/span&gt;: 投入&lt;span style=&quot;color: rgb(20, 0, 196);&quot; class=&quot;s1&quot;&gt;1&lt;/span&gt;元&lt;span class=&quot;Apple-converted-space&quot;&gt;&amp;nbsp; &amp;nbsp; &amp;nbsp; &amp;nbsp; &amp;nbsp; &amp;nbsp; &amp;nbsp; &amp;nbsp; &amp;nbsp; &lt;/span&gt;|&lt;/p&gt;&lt;p style=&quot;margin: 0px; font-variant-numeric: normal; font-variant-east-asian: normal; font-variant-alternates: normal; font-size-adjust: none; font-kerning: auto; font-optical-sizing: auto; font-feature-settings: normal; font-variation-settings: normal; font-variant-position: normal; font-stretch: normal; font-size: 13px; line-height: normal; font-family: &amp;quot;.AppleSystemUIFontMonospaced&amp;quot;; text-align: start;&quot; class=&quot;p1&quot;&gt;| &lt;span style=&quot;color: rgb(20, 0, 196);&quot; class=&quot;s1&quot;&gt;3&lt;/span&gt;: 选择啤酒 &lt;span class=&quot;Apple-converted-space&quot;&gt;&amp;nbsp; &amp;nbsp; &amp;nbsp; &amp;nbsp; &amp;nbsp; &amp;nbsp; &amp;nbsp; &amp;nbsp; &lt;/span&gt;|&lt;/p&gt;&lt;p style=&quot;margin: 0px; font-variant-numeric: normal; font-variant-east-asian: normal; font-variant-alternates: normal; font-size-adjust: none; font-kerning: auto; font-optical-sizing: auto; font-feature-settings: normal; font-variation-settings: normal; font-variant-position: normal; font-stretch: normal; font-size: 13px; line-height: normal; font-family: &amp;quot;.AppleSystemUIFontMonospaced&amp;quot;; text-align: start;&quot; class=&quot;p1&quot;&gt;| &lt;span style=&quot;color: rgb(20, 0, 196);&quot; class=&quot;s1&quot;&gt;4&lt;/span&gt;: 选择橙汁 &lt;span class=&quot;Apple-converted-space&quot;&gt;&amp;nbsp; &amp;nbsp; &amp;nbsp; &amp;nbsp; &amp;nbsp; &amp;nbsp; &amp;nbsp; &amp;nbsp; &lt;/span&gt;|&lt;/p&gt;&lt;p style=&quot;margin: 0px; font-variant-numeric: normal; font-variant-east-asian: normal; font-variant-alternates: normal; font-size-adjust: none; font-kerning: auto; font-optical-sizing: auto; font-feature-settings: normal; font-variation-settings: normal; font-variant-position: normal; font-stretch: normal; font-size: 13px; line-height: normal; font-family: &amp;quot;.AppleSystemUIFontMonospaced&amp;quot;; text-align: start;&quot; class=&quot;p1&quot;&gt;| &lt;span style=&quot;color: rgb(20, 0, 196);&quot; class=&quot;s1&quot;&gt;5&lt;/span&gt;: 设置零钱数量 &lt;span class=&quot;Apple-converted-space&quot;&gt;&amp;nbsp; &amp;nbsp; &amp;nbsp; &amp;nbsp; &amp;nbsp; &amp;nbsp; &lt;/span&gt;|&lt;/p&gt;&lt;p style=&quot;margin: 0px; font-variant-numeric: normal; font-variant-east-asian: normal; font-variant-alternates: normal; font-size-adjust: none; font-kerning: auto; font-optical-sizing: auto; font-feature-settings: normal; font-variation-settings: normal; font-variant-position: normal; font-stretch: normal; font-size: 13px; line-height: normal; font-family: &amp;quot;.AppleSystemUIFontMonospaced&amp;quot;; text-align: start;&quot; class=&quot;p1&quot;&gt;| &lt;span style=&quot;color: rgb(20, 0, 196);&quot; class=&quot;s1&quot;&gt;0&lt;/span&gt;: 退出程序&lt;span class=&quot;Apple-converted-space&quot;&gt;&amp;nbsp; &amp;nbsp; &amp;nbsp; &amp;nbsp; &amp;nbsp; &amp;nbsp; &amp;nbsp; &amp;nbsp; &amp;nbsp; &amp;nbsp;|&lt;/span&gt;&lt;/p&gt;&lt;/div&gt;" style="rounded=0;whiteSpace=wrap;html=1;" vertex="1" parent="1">
          <mxGeometry x="300" y="240" width="200" height="150" as="geometry" />
        </mxCell>
        <mxCell id="n4JBOWXjH9mU0pEgpQ5--5" value="用户输入菜单选项" style="shape=parallelogram;perimeter=parallelogramPerimeter;whiteSpace=wrap;html=1;fixedSize=1;" vertex="1" parent="1">
          <mxGeometry x="340" y="430" width="120" height="60" as="geometry" />
        </mxCell>
        <mxCell id="n4JBOWXjH9mU0pEgpQ5--13" style="edgeStyle=orthogonalEdgeStyle;rounded=0;orthogonalLoop=1;jettySize=auto;html=1;exitX=0;exitY=1;exitDx=0;exitDy=0;entryX=0.5;entryY=0;entryDx=0;entryDy=0;" edge="1" parent="1" source="n4JBOWXjH9mU0pEgpQ5--6" target="n4JBOWXjH9mU0pEgpQ5--7">
          <mxGeometry relative="1" as="geometry" />
        </mxCell>
        <mxCell id="n4JBOWXjH9mU0pEgpQ5--21" value="1" style="edgeLabel;html=1;align=center;verticalAlign=middle;resizable=0;points=[];" vertex="1" connectable="0" parent="n4JBOWXjH9mU0pEgpQ5--13">
          <mxGeometry x="0.845" y="2" relative="1" as="geometry">
            <mxPoint as="offset" />
          </mxGeometry>
        </mxCell>
        <mxCell id="n4JBOWXjH9mU0pEgpQ5--15" style="edgeStyle=orthogonalEdgeStyle;rounded=0;orthogonalLoop=1;jettySize=auto;html=1;exitX=0;exitY=1;exitDx=0;exitDy=0;entryX=0.5;entryY=0;entryDx=0;entryDy=0;" edge="1" parent="1" source="n4JBOWXjH9mU0pEgpQ5--6" target="n4JBOWXjH9mU0pEgpQ5--8">
          <mxGeometry relative="1" as="geometry" />
        </mxCell>
        <mxCell id="n4JBOWXjH9mU0pEgpQ5--22" value="2" style="edgeLabel;html=1;align=center;verticalAlign=middle;resizable=0;points=[];" vertex="1" connectable="0" parent="n4JBOWXjH9mU0pEgpQ5--15">
          <mxGeometry x="0.7" relative="1" as="geometry">
            <mxPoint as="offset" />
          </mxGeometry>
        </mxCell>
        <mxCell id="n4JBOWXjH9mU0pEgpQ5--18" value="" style="edgeStyle=orthogonalEdgeStyle;rounded=0;orthogonalLoop=1;jettySize=auto;html=1;" edge="1" parent="1" source="n4JBOWXjH9mU0pEgpQ5--6" target="n4JBOWXjH9mU0pEgpQ5--9">
          <mxGeometry relative="1" as="geometry" />
        </mxCell>
        <mxCell id="n4JBOWXjH9mU0pEgpQ5--23" value="3/4" style="edgeLabel;html=1;align=center;verticalAlign=middle;resizable=0;points=[];" vertex="1" connectable="0" parent="n4JBOWXjH9mU0pEgpQ5--18">
          <mxGeometry x="-0.35" y="1" relative="1" as="geometry">
            <mxPoint as="offset" />
          </mxGeometry>
        </mxCell>
        <mxCell id="n4JBOWXjH9mU0pEgpQ5--19" style="edgeStyle=orthogonalEdgeStyle;rounded=0;orthogonalLoop=1;jettySize=auto;html=1;exitX=1;exitY=1;exitDx=0;exitDy=0;entryX=0.5;entryY=0;entryDx=0;entryDy=0;" edge="1" parent="1" source="n4JBOWXjH9mU0pEgpQ5--6" target="n4JBOWXjH9mU0pEgpQ5--10">
          <mxGeometry relative="1" as="geometry" />
        </mxCell>
        <mxCell id="n4JBOWXjH9mU0pEgpQ5--24" value="5" style="edgeLabel;html=1;align=center;verticalAlign=middle;resizable=0;points=[];" vertex="1" connectable="0" parent="n4JBOWXjH9mU0pEgpQ5--19">
          <mxGeometry x="0.7" relative="1" as="geometry">
            <mxPoint as="offset" />
          </mxGeometry>
        </mxCell>
        <mxCell id="n4JBOWXjH9mU0pEgpQ5--20" style="edgeStyle=orthogonalEdgeStyle;rounded=0;orthogonalLoop=1;jettySize=auto;html=1;exitX=1;exitY=1;exitDx=0;exitDy=0;entryX=0.5;entryY=0;entryDx=0;entryDy=0;" edge="1" parent="1" source="n4JBOWXjH9mU0pEgpQ5--6" target="n4JBOWXjH9mU0pEgpQ5--11">
          <mxGeometry relative="1" as="geometry" />
        </mxCell>
        <mxCell id="n4JBOWXjH9mU0pEgpQ5--26" value="0" style="edgeLabel;html=1;align=center;verticalAlign=middle;resizable=0;points=[];" vertex="1" connectable="0" parent="n4JBOWXjH9mU0pEgpQ5--20">
          <mxGeometry x="0.85" y="1" relative="1" as="geometry">
            <mxPoint as="offset" />
          </mxGeometry>
        </mxCell>
        <mxCell id="n4JBOWXjH9mU0pEgpQ5--6" value="选择操作" style="rhombus;whiteSpace=wrap;html=1;" vertex="1" parent="1">
          <mxGeometry x="360" y="530" width="80" height="80" as="geometry" />
        </mxCell>
        <mxCell id="n4JBOWXjH9mU0pEgpQ5--28" style="edgeStyle=orthogonalEdgeStyle;rounded=0;orthogonalLoop=1;jettySize=auto;html=1;exitX=0.5;exitY=1;exitDx=0;exitDy=0;entryX=0.5;entryY=0;entryDx=0;entryDy=0;" edge="1" parent="1" source="n4JBOWXjH9mU0pEgpQ5--7" target="n4JBOWXjH9mU0pEgpQ5--27">
          <mxGeometry relative="1" as="geometry" />
        </mxCell>
        <mxCell id="n4JBOWXjH9mU0pEgpQ5--7" value="投入5角" style="rounded=0;whiteSpace=wrap;html=1;" vertex="1" parent="1">
          <mxGeometry x="-20" y="650" width="120" height="60" as="geometry" />
        </mxCell>
        <mxCell id="n4JBOWXjH9mU0pEgpQ5--29" style="edgeStyle=orthogonalEdgeStyle;rounded=0;orthogonalLoop=1;jettySize=auto;html=1;exitX=0.5;exitY=1;exitDx=0;exitDy=0;" edge="1" parent="1" source="n4JBOWXjH9mU0pEgpQ5--8">
          <mxGeometry relative="1" as="geometry">
            <mxPoint x="130" y="780" as="targetPoint" />
          </mxGeometry>
        </mxCell>
        <mxCell id="n4JBOWXjH9mU0pEgpQ5--8" value="投入1元" style="rounded=0;whiteSpace=wrap;html=1;" vertex="1" parent="1">
          <mxGeometry x="160" y="650" width="120" height="60" as="geometry" />
        </mxCell>
        <mxCell id="n4JBOWXjH9mU0pEgpQ5--35" value="" style="edgeStyle=orthogonalEdgeStyle;rounded=0;orthogonalLoop=1;jettySize=auto;html=1;" edge="1" parent="1" source="n4JBOWXjH9mU0pEgpQ5--9" target="n4JBOWXjH9mU0pEgpQ5--30">
          <mxGeometry relative="1" as="geometry" />
        </mxCell>
        <mxCell id="n4JBOWXjH9mU0pEgpQ5--9" value="选择饮料" style="rounded=0;whiteSpace=wrap;html=1;" vertex="1" parent="1">
          <mxGeometry x="340" y="650" width="120" height="60" as="geometry" />
        </mxCell>
        <mxCell id="n4JBOWXjH9mU0pEgpQ5--10" value="设置零钱数量" style="rounded=0;whiteSpace=wrap;html=1;" vertex="1" parent="1">
          <mxGeometry x="500" y="650" width="120" height="60" as="geometry" />
        </mxCell>
        <mxCell id="n4JBOWXjH9mU0pEgpQ5--11" value="退出" style="rounded=0;whiteSpace=wrap;html=1;" vertex="1" parent="1">
          <mxGeometry x="660" y="650" width="120" height="60" as="geometry" />
        </mxCell>
        <mxCell id="n4JBOWXjH9mU0pEgpQ5--12" value="初始化售货机&lt;div&gt;设置零钱和硬币数量等参数&lt;/div&gt;" style="rounded=0;whiteSpace=wrap;html=1;" vertex="1" parent="1">
          <mxGeometry x="340" y="150" width="120" height="60" as="geometry" />
        </mxCell>
        <mxCell id="n4JBOWXjH9mU0pEgpQ5--27" value="更新当前余额" style="rounded=0;whiteSpace=wrap;html=1;" vertex="1" parent="1">
          <mxGeometry x="70" y="780" width="120" height="60" as="geometry" />
        </mxCell>
        <mxCell id="n4JBOWXjH9mU0pEgpQ5--36" style="edgeStyle=orthogonalEdgeStyle;rounded=0;orthogonalLoop=1;jettySize=auto;html=1;exitX=0;exitY=0.5;exitDx=0;exitDy=0;entryX=0.5;entryY=0;entryDx=0;entryDy=0;" edge="1" parent="1" source="n4JBOWXjH9mU0pEgpQ5--30" target="n4JBOWXjH9mU0pEgpQ5--32">
          <mxGeometry relative="1" as="geometry" />
        </mxCell>
        <mxCell id="n4JBOWXjH9mU0pEgpQ5--40" value="是" style="edgeLabel;html=1;align=center;verticalAlign=middle;resizable=0;points=[];" vertex="1" connectable="0" parent="n4JBOWXjH9mU0pEgpQ5--36">
          <mxGeometry x="-0.15" y="-1" relative="1" as="geometry">
            <mxPoint as="offset" />
          </mxGeometry>
        </mxCell>
        <mxCell id="n4JBOWXjH9mU0pEgpQ5--37" style="edgeStyle=orthogonalEdgeStyle;rounded=0;orthogonalLoop=1;jettySize=auto;html=1;exitX=1;exitY=0.5;exitDx=0;exitDy=0;entryX=0.5;entryY=0;entryDx=0;entryDy=0;" edge="1" parent="1" source="n4JBOWXjH9mU0pEgpQ5--30" target="n4JBOWXjH9mU0pEgpQ5--31">
          <mxGeometry relative="1" as="geometry" />
        </mxCell>
        <mxCell id="n4JBOWXjH9mU0pEgpQ5--41" value="否" style="edgeLabel;html=1;align=center;verticalAlign=middle;resizable=0;points=[];" vertex="1" connectable="0" parent="n4JBOWXjH9mU0pEgpQ5--37">
          <mxGeometry x="-0.3692" y="1" relative="1" as="geometry">
            <mxPoint as="offset" />
          </mxGeometry>
        </mxCell>
        <mxCell id="n4JBOWXjH9mU0pEgpQ5--30" value="余额是否够用" style="rhombus;whiteSpace=wrap;html=1;" vertex="1" parent="1">
          <mxGeometry x="360" y="750" width="80" height="80" as="geometry" />
        </mxCell>
        <mxCell id="n4JBOWXjH9mU0pEgpQ5--31" value="余额不足，返回主菜单" style="rounded=0;whiteSpace=wrap;html=1;" vertex="1" parent="1">
          <mxGeometry x="460" y="840" width="120" height="60" as="geometry" />
        </mxCell>
        <mxCell id="n4JBOWXjH9mU0pEgpQ5--38" value="" style="edgeStyle=orthogonalEdgeStyle;rounded=0;orthogonalLoop=1;jettySize=auto;html=1;" edge="1" parent="1" source="n4JBOWXjH9mU0pEgpQ5--32" target="n4JBOWXjH9mU0pEgpQ5--33">
          <mxGeometry relative="1" as="geometry" />
        </mxCell>
        <mxCell id="n4JBOWXjH9mU0pEgpQ5--32" value="发放饮料，更新余额" style="rounded=0;whiteSpace=wrap;html=1;" vertex="1" parent="1">
          <mxGeometry x="230" y="840" width="120" height="60" as="geometry" />
        </mxCell>
        <mxCell id="n4JBOWXjH9mU0pEgpQ5--39" value="" style="edgeStyle=orthogonalEdgeStyle;rounded=0;orthogonalLoop=1;jettySize=auto;html=1;" edge="1" parent="1" source="n4JBOWXjH9mU0pEgpQ5--33" target="n4JBOWXjH9mU0pEgpQ5--34">
          <mxGeometry relative="1" as="geometry" />
        </mxCell>
        <mxCell id="n4JBOWXjH9mU0pEgpQ5--42" value="是" style="edgeLabel;html=1;align=center;verticalAlign=middle;resizable=0;points=[];" vertex="1" connectable="0" parent="n4JBOWXjH9mU0pEgpQ5--39">
          <mxGeometry x="0.2" relative="1" as="geometry">
            <mxPoint as="offset" />
          </mxGeometry>
        </mxCell>
        <mxCell id="n4JBOWXjH9mU0pEgpQ5--44" style="edgeStyle=orthogonalEdgeStyle;rounded=0;orthogonalLoop=1;jettySize=auto;html=1;exitX=1;exitY=0.5;exitDx=0;exitDy=0;" edge="1" parent="1" source="n4JBOWXjH9mU0pEgpQ5--33" target="n4JBOWXjH9mU0pEgpQ5--43">
          <mxGeometry relative="1" as="geometry" />
        </mxCell>
        <mxCell id="n4JBOWXjH9mU0pEgpQ5--45" value="否" style="edgeLabel;html=1;align=center;verticalAlign=middle;resizable=0;points=[];" vertex="1" connectable="0" parent="n4JBOWXjH9mU0pEgpQ5--44">
          <mxGeometry x="-0.5538" y="-1" relative="1" as="geometry">
            <mxPoint as="offset" />
          </mxGeometry>
        </mxCell>
        <mxCell id="n4JBOWXjH9mU0pEgpQ5--33" value="是否找零" style="rhombus;whiteSpace=wrap;html=1;" vertex="1" parent="1">
          <mxGeometry x="250" y="930" width="80" height="80" as="geometry" />
        </mxCell>
        <mxCell id="n4JBOWXjH9mU0pEgpQ5--34" value="发放找零，并更新硬币数量" style="rounded=0;whiteSpace=wrap;html=1;" vertex="1" parent="1">
          <mxGeometry x="230" y="1040" width="120" height="60" as="geometry" />
        </mxCell>
        <mxCell id="n4JBOWXjH9mU0pEgpQ5--43" value="返回主菜单" style="rounded=0;whiteSpace=wrap;html=1;" vertex="1" parent="1">
          <mxGeometry x="460" y="1040" width="120" height="60" as="geometry" />
        </mxCell>
      </root>
    </mxGraphModel>
  </diagram>
</mxfile>
